# xmcd CD database file
#
# Track frame offsets:
#	150
#	12350
#	31059
#	44725
#	55513
#	70649
#	100265
#	125782
#	137679
#	155705
#	186236
#	197482
#	214535
#	229446
#	246797
#	262355
#	280627
#	298996
#	317252
#	336540
#
# Disc length: 4643 seconds
#
# Revision: 1
# Processed by: cddbd v1.5.2PL0 Copyright (c) Steve Scherf et al.
# Submitted via: CDex 1.51
#
DISCID=35122114
DTITLE=Various Artist - Essential Jazz ~ Jazz Contemporain  [CD 3-4]
DYEAR=2008
DGENRE=Jazz
TTITLE0=Biréli Lagrène - Blues Clair
TTITLE1=Philip Catherine - Blue Prince
TTITLE2=Stephane Grapelli and Michel Petrucciani - Litle Peace In C (For U)
TTITLE3=Stan Getz - Lullaby Of Biroland
TTITLE4=Richard Galliano - Waltz For Nicky
TTITLE5=Martial Solal - Just Friends
TTITLE6=Andre Ceccarelli - Walk On The Wild Side
TTITLE7=Franck Avitabile - Twisted Nerve
TTITLE8=Sylvain Luc and Biréli Lagrène - Isn't She Lovely
TTITLE9=Maurice Vander - Satin Doll
TTITLE10=Sara Lazarus - It's Crazy
TTITLE11=John Lewis - Django
TTITLE12=Didier Lockwood - I Got Rhythm
TTITLE13=Stracey Kent and Jan Lundgren Trio - Street Of Deams
TTITLE14=Rosario Giuliani - Blow Out
TTITLE15=Jean Michel Pilc - Mood Indigo
TTITLE16=Michel Portal - Give Me A Chance
TTITLE17=Terez Montcalm - Sweet Dreams
TTITLE18=Diana Krall - I'm Just Lucky So And So
TTITLE19=Michael Buble - Peroxide Swing
EXTD=YEAR: 2008
EXTT0=
EXTT1=
EXTT2=
EXTT3=
EXTT4=
EXTT5=
EXTT6=
EXTT7=
EXTT8=
EXTT9=
EXTT10=
EXTT11=
EXTT12=
EXTT13=
EXTT14=
EXTT15=
EXTT16=
EXTT17=
EXTT18=
EXTT19=
PLAYORDER=
